<?xml version="1.0" standalone="no"?>
<!DOCTYPE svg PUBLIC "-//W3C//DTD SVG 20010904//EN"
 "http://www.w3.org/TR/2001/REC-SVG-20010904/DTD/svg10.dtd">
<svg version="1.0" xmlns="http://www.w3.org/2000/svg"
 width="600.000000pt" height="600.000000pt" viewBox="0 0 600.000000 600.000000"
 preserveAspectRatio="xMidYMid meet">
<metadata>
Created by potrace 1.14, written by Peter Selinger 2001-2017
</metadata>
<g transform="translate(0.000000,600.000000) scale(0.100000,-0.100000)"
fill="#000000" stroke="none">
<path d="M4835 5850 c-22 -4 -58 -11 -80 -14 -89 -14 -161 -26 -184 -31 -12
-2 -42 -7 -65 -9 -22 -3 -52 -8 -66 -11 -14 -3 -45 -8 -70 -11 -25 -3 -54 -8
-65 -10 -11 -3 -38 -7 -60 -10 -22 -3 -62 -9 -90 -14 -27 -6 -68 -12 -90 -15
-125 -18 -298 -46 -304 -49 -3 -2 -28 -6 -56 -10 -68 -8 -105 -14 -140 -20
-16 -3 -47 -8 -69 -11 -21 -4 -48 -9 -60 -11 -11 -3 -43 -7 -71 -10 -27 -2
-57 -7 -64 -10 -46 -16 -157 -21 -231 -11 -25 4 -67 9 -95 12 -27 3 -66 8 -85
10 -19 3 -55 8 -80 11 -25 3 -58 7 -75 9 -16 2 -55 6 -85 9 -30 3 -71 8 -90
11 -63 8 -153 20 -240 29 -30 4 -69 9 -87 12 -18 2 -61 7 -97 10 l-64 5 -6
-48 c-7 -56 -14 -148 -18 -215 l-2 -46 -55 -7 c-30 -4 -64 -9 -76 -12 -42 -9
-61 -12 -110 -18 -27 -3 -57 -7 -65 -9 -8 -3 -33 -7 -55 -11 -50 -7 -91 -13
-130 -20 -16 -3 -43 -8 -60 -10 -31 -5 -99 -15 -125 -20 -8 -2 -35 -6 -60 -9
-25 -3 -56 -8 -70 -11 -30 -6 -60 -11 -120 -20 -25 -4 -56 -8 -70 -10 -14 -2
-65 -11 -115 -19 -49 -9 -108 -18 -130 -21 -22 -2 -51 -7 -65 -9 -45 -8 -104
-18 -130 -21 -23 -3 -51 -7 -120 -20 -14 -2 -45 -7 -70 -10 -25 -3 -52 -8 -60
-10 -8 -3 -31 -7 -50 -9 -48 -7 -110 -16 -140 -21 -14 -3 -41 -7 -60 -11 -19
-3 -42 -7 -50 -9 -8 -2 -25 -4 -38 -4 -20 -1 -23 -5 -18 -28 3 -16 8 -44 10
-63 5 -38 8 -58 37 -230 11 -63 21 -126 23 -140 11 -87 17 -128 22 -150 3 -13
8 -40 10 -60 2 -19 7 -46 9 -60 3 -14 10 -54 15 -90 19 -114 20 -124 30 -180
6 -30 12 -68 14 -85 15 -117 20 -145 29 -190 3 -11 8 -45 13 -75 4 -30 8 -57
9 -60 1 -6 16 -101 21 -140 2 -14 6 -36 8 -50 3 -14 8 -45 11 -70 4 -25 9 -56
11 -70 13 -68 25 -139 30 -180 3 -25 8 -54 10 -65 2 -10 6 -37 9 -60 3 -22 10
-65 15 -95 5 -30 12 -71 15 -90 3 -19 8 -46 10 -60 3 -14 7 -42 10 -62 8 -60
14 -101 20 -128 2 -13 7 -42 10 -65 6 -38 15 -98 35 -215 6 -30 12 -73 16 -95
3 -22 7 -51 9 -65 2 -14 7 -41 10 -60 4 -19 9 -51 11 -70 1 -19 4 -36 5 -37 3
-5 5 -16 13 -78 4 -32 10 -68 12 -80 2 -11 7 -36 10 -55 2 -19 7 -46 9 -60 3
-14 7 -43 11 -65 3 -22 7 -51 10 -65 2 -14 7 -41 10 -60 3 -19 11 -73 19 -118
8 -46 14 -87 13 -90 0 -4 1 -10 2 -14 5 -14 6 -23 14 -83 4 -32 9 -67 11 -76
2 -9 6 -32 9 -50 3 -19 7 -43 10 -54 2 -11 7 -45 11 -75 4 -30 9 -64 11 -75 2
-10 6 -37 9 -60 3 -22 8 -47 10 -55 3 -8 7 -33 10 -55 2 -22 7 -49 9 -60 2
-11 7 -40 10 -65 3 -25 8 -56 10 -70 9 -48 25 -145 31 -185 4 -22 8 -49 10
-60 2 -11 6 -42 10 -69 8 -63 12 -69 40 -62 12 3 40 8 61 11 21 4 47 8 56 11
10 3 30 7 45 10 141 23 537 130 663 179 19 7 69 26 110 41 204 74 546 236 733
345 32 19 66 39 77 44 10 6 35 22 56 36 22 14 77 50 123 80 47 30 123 82 169
117 46 34 86 62 88 62 2 0 14 9 26 19 13 10 82 68 153 127 174 145 354 317
480 456 62 69 136 154 168 191 27 32 24 32 112 -22 142 -88 376 -209 515 -265
36 -15 74 -31 85 -35 11 -5 47 -19 80 -31 33 -12 69 -26 80 -30 102 -41 396
-119 545 -146 14 -2 36 -7 50 -10 14 -3 43 -8 65 -10 22 -3 56 -9 75 -13 57
-12 93 -8 96 11 2 18 13 114 19 163 4 40 15 134 20 165 2 14 7 50 10 80 3 30
8 66 10 80 3 14 7 50 9 80 3 30 7 64 10 75 2 11 7 54 11 95 4 41 9 84 11 95 2
11 6 43 9 70 2 28 7 66 10 85 2 19 7 58 10 85 3 28 8 64 10 80 3 17 7 50 9 75
3 25 7 61 10 80 3 19 10 80 16 135 6 55 14 114 16 130 3 17 7 48 9 70 3 22 7
63 11 90 9 71 13 103 18 165 3 30 6 55 6 55 3 0 9 42 14 90 5 49 22 186 31
255 8 57 15 115 20 173 3 29 8 65 10 78 3 13 7 52 11 87 3 35 7 73 9 84 3 12
7 44 10 72 12 104 15 132 20 166 12 95 18 138 20 165 2 17 6 53 9 80 4 28 9
66 11 85 2 19 7 53 10 75 5 42 14 119 19 170 2 17 6 50 10 75 3 25 8 66 11 92
3 26 7 62 10 80 15 101 14 128 -3 129 -30 1 -96 9 -127 14 -16 4 -57 8 -90 11
-33 3 -71 7 -85 10 -14 2 -48 6 -76 9 -28 2 -64 6 -80 9 -16 3 -69 10 -119 16
-49 6 -106 12 -125 15 -19 3 -57 7 -85 10 -27 3 -68 8 -90 11 -22 4 -53 8 -70
10 -41 4 -63 9 -70 16 -3 3 -7 41 -10 85 -3 71 -8 120 -20 203 -2 14 -7 54
-10 90 -9 77 -20 110 -37 109 -7 -1 -31 -5 -53 -9z"/>
</g>
</svg>
